<?xml version="1.0" standalone="no"?>
<!DOCTYPE svg PUBLIC "-//W3C//DTD SVG 20010904//EN"
 "http://www.w3.org/TR/2001/REC-SVG-20010904/DTD/svg10.dtd">
<svg version="1.0" xmlns="http://www.w3.org/2000/svg"
 width="1259.000000pt" height="1259.000000pt" viewBox="0 0 1259.000000 1259.000000"
 preserveAspectRatio="xMidYMid meet">
<metadata>
Created by potrace 1.16, written by Peter Selinger 2001-2019
</metadata>
<g transform="translate(0.000000,1259.000000) scale(0.100000,-0.100000)"
fill="#000000" stroke="none">
<path d="M4999 11950 c-157 -15 -315 -69 -529 -182 -301 -159 -548 -347 -621
-475 -72 -126 -109 -294 -109 -497 0 -224 34 -359 140 -561 76 -143 89 -185
66 -219 -19 -30 -56 -50 -149 -82 -302 -103 -968 -589 -1435 -1048 -291 -286
-354 -402 -261 -480 93 -78 302 -21 560 153 57 38 139 100 181 138 42 37 130
115 195 173 296 264 577 469 876 641 156 90 304 162 602 294 132 58 243 109
247 113 3 4 -54 79 -128 167 -208 248 -286 377 -329 540 -19 74 -19 213 0 285
60 226 278 443 610 605 168 82 225 99 330 100 81 0 96 -3 150 -30 78 -40 174
-136 261 -266 89 -131 143 -224 334 -574 84 -154 155 -282 156 -284 2 -2 121
-16 264 -32 386 -42 638 -87 955 -169 307 -79 481 -146 503 -194 6 -14 26 -33
44 -42 42 -22 145 -30 190 -15 84 28 251 169 419 354 360 397 530 533 707 567
156 31 324 -52 545 -269 160 -156 355 -394 387 -470 12 -30 11 -37 -6 -70 -34
-64 -188 -261 -354 -451 -282 -324 -410 -531 -410 -661 0 -49 21 -69 74 -69
56 0 117 -41 204 -136 68 -75 82 -86 82 -59 0 8 3 15 6 15 19 0 192 -150 434
-375 678 -633 1212 -1406 1495 -2165 92 -249 142 -436 191 -728 18 -112 43
-223 53 -247 26 -60 66 -79 142 -71 94 11 189 41 218 70 25 25 26 33 29 144 6
212 -39 552 -110 836 -182 729 -603 1432 -1253 2095 -216 221 -393 380 -703
633 -233 191 -233 191 -214 212 79 88 328 385 373 446 117 156 202 315 235
440 23 88 23 246 0 325 -23 78 -74 173 -136 256 -138 184 -499 468 -698 549
-138 56 -203 65 -477 65 -208 0 -259 -3 -305 -17 -130 -40 -232 -131 -637
-565 -134 -145 -246 -263 -247 -263 -2 0 -68 27 -147 61 -246 103 -501 161
-924 209 -457 52 -508 79 -687 370 -82 133 -162 283 -178 335 -16 49 -61 121
-151 241 -187 247 -285 297 -634 323 -232 17 -336 20 -426 11z"/>
<path d="M3675 7749 c-209 -12 -311 -60 -486 -227 -125 -120 -162 -170 -192
-267 -21 -66 -22 -87 -22 -410 0 -277 4 -361 18 -454 57 -359 185 -508 542
-624 215 -71 308 -82 433 -50 87 22 338 148 427 215 204 154 355 369 415 593
33 120 38 302 12 427 -40 193 -141 376 -292 527 -216 217 -454 293 -855 270z"/>
<path d="M9392 7110 c-138 -19 -249 -73 -382 -184 -200 -168 -318 -339 -386
-561 -27 -85 -28 -101 -28 -280 0 -221 13 -285 90 -444 58 -122 113 -197 210
-292 272 -263 654 -363 971 -255 158 54 277 131 398 257 214 224 315 490 302
796 -10 258 -99 460 -286 656 -151 158 -297 256 -436 293 -71 18 -358 27 -453
14z"/>
<path d="M874 6595 c-89 -16 -119 -32 -175 -92 -103 -110 -191 -305 -267 -588
-121 -448 -172 -959 -152 -1511 16 -461 49 -599 247 -1033 231 -509 481 -870
877 -1267 336 -336 683 -597 1111 -835 431 -239 958 -434 1390 -514 507 -93
1378 -148 2355 -147 1095 0 1552 46 2375 238 475 111 836 236 938 326 30 26
40 44 49 89 16 78 0 115 -61 142 -40 17 -58 19 -151 14 -137 -9 -261 -36 -625
-141 -1015 -290 -1543 -356 -2860 -356 -909 0 -1272 32 -1765 156 -404 101
-717 214 -1065 383 -1588 774 -2468 2250 -2246 3767 27 183 61 328 142 601
135 459 169 636 136 716 -28 65 -100 80 -253 52z"/>
<path d="M6009 5725 c-153 -24 -386 -115 -564 -220 -190 -112 -395 -284 -597
-501 -412 -443 -588 -766 -588 -1074 1 -235 96 -379 362 -544 173 -109 324
-233 519 -427 91 -91 204 -196 250 -233 367 -296 777 -437 1147 -396 197 22
350 74 529 182 265 159 454 228 631 228 147 0 327 69 431 166 153 141 241 350
259 614 9 126 -2 362 -23 480 -38 223 -132 534 -201 673 -147 290 -504 659
-815 842 -171 100 -482 182 -813 214 -147 15 -421 12 -527 -4z"/>
<path d="M12044 4516 c-65 -29 -129 -169 -225 -495 -152 -516 -334 -847 -700
-1266 -148 -171 -466 -486 -714 -710 -365 -328 -390 -360 -327 -416 41 -36
160 -63 251 -57 184 14 471 207 817 553 370 369 620 714 793 1092 207 451 332
863 331 1088 -1 115 -30 172 -105 206 -47 22 -79 23 -121 5z"/>
</g>
</svg>
